<svg width="414" height="504" viewBox="0 0 414 504" fill="none" xmlns="http://www.w3.org/2000/svg">
<g clip-path="url(#clip0)">
<path d="M0 -1V381.053C0 381.053 32.2351 449.788 115.112 441.811C197.989 433.835 215.177 390.876 315.243 470.049C315.243 470.049 350.543 503.185 415 501.967V-1H0Z" fill="#FAF8F5"/>
<path d="M402.149 504C349.355 504 318.072 479.662 317.738 479.381C255.185 430.238 216.838 439.61 163.778 452.6C149.705 456.045 135.138 459.609 118.529 462.6C37.3493 477.232 -2.59944 434.67 -3 434.23L-2.01196 433.335C-1.62476 433.762 37.8967 475.777 118.275 461.291C134.858 458.301 149.385 454.75 163.444 451.305C216.878 438.235 255.478 428.796 318.553 478.34C318.94 478.647 356.899 508.152 419.853 501.757L419.987 503.079C413.805 503.72 407.85 504 402.149 504Z" fill="#F9F0E3"/>
<g clip-path="url(#clip1)">
<path d="M309.561 274.308C308.615 276.722 307.124 278.885 305.204 280.629L304.948 280.885C301.64 283.986 297.268 285.698 292.734 285.668H268.305C266.853 285.666 265.502 284.926 264.718 283.704L260.618 277.126L243.364 249.537C242.694 248.563 242.506 247.336 242.852 246.206C243.114 245.045 243.86 244.05 244.901 243.473L283.338 222.119C285.418 221.026 287.99 221.782 289.147 223.827L308.963 259.189C311.438 263.879 311.657 269.437 309.561 274.308Z" fill="#35995D"/>
<path d="M217.568 183.938L213.981 188.978L194.934 215.542C194.134 216.681 192.823 217.352 191.431 217.336C190.718 217.328 190.015 217.153 189.381 216.823L142.403 191.199C141.311 190.62 140.529 189.589 140.268 188.38C139.998 187.157 140.279 185.876 141.037 184.878L159.315 160.535C160.045 159.539 160.844 158.598 161.707 157.716C166.853 152.288 173.96 149.15 181.438 149.004C181.838 148.99 182.239 149.018 182.634 149.089C191.771 149.364 200.234 153.961 205.44 161.474L217.568 179.07C218.584 180.534 218.584 182.475 217.568 183.938Z" fill="#35995D"/>
<path d="M190.065 267.474C188.764 268.669 186.864 268.941 185.281 268.158L171.956 261.495L164.184 277.126L161.109 283.276C160.372 284.726 158.891 285.647 157.265 285.668H124.295C119.715 285.723 115.297 283.974 111.995 280.799L111.824 280.628C109.857 278.823 108.311 276.607 107.297 274.137C105.986 270.795 105.689 267.14 106.443 263.631C106.776 262.121 107.292 260.658 107.981 259.275L122.159 231.002L107.297 216.054C106.031 214.876 105.653 213.022 106.358 211.442C107.013 209.847 108.562 208.803 110.287 208.794H165.806C167.531 208.803 169.08 209.847 169.735 211.442L191.089 262.691C191.753 264.346 191.347 266.237 190.065 267.474Z" fill="#35995D"/>
<path d="M191.431 281.397V332.646C191.431 335.005 189.519 336.917 187.161 336.917H166.405C156.602 336.94 147.424 332.111 141.89 324.019C140.694 322.311 139.669 320.773 138.73 319.407L138.389 319.065C138.474 319.065 136.766 316.674 135.143 314.282C134.374 313.257 133.776 312.232 133.178 311.463C130.957 308.217 129.762 306.595 130.274 307.278C129.847 306.595 129.42 306.082 129.249 305.741L129.164 305.655C128.822 305.143 128.711 304.972 128.694 304.929L128.566 304.801L128.481 304.63C122.502 296.003 116.95 287.974 111.996 280.8L111.825 280.629C110.202 278.408 108.75 276.187 107.298 274.137C105.987 270.795 105.69 267.141 106.444 263.631L117.975 274.65C119.663 276.291 121.941 277.184 124.296 277.127H187.161C189.519 277.126 191.431 279.038 191.431 281.397Z" fill="#6ACC91"/>
<path d="M285.046 171.98L263.693 223.229C263.038 224.824 261.488 225.869 259.764 225.877C259.505 225.891 259.245 225.862 258.995 225.792L212.017 217.25C210.225 216.884 208.838 215.463 208.515 213.663C208.259 211.819 209.226 210.023 210.906 209.221L223.547 202.901L213.981 188.978L198.435 166.257C194.678 160.919 188.564 157.734 182.036 157.716H161.707C165.931 153.245 171.518 150.301 177.594 149.345L181.438 149.089H182.634L237.812 149.004C244.976 148.969 251.68 152.53 255.664 158.485L265.486 173.347L279.238 166.514C280.821 165.731 282.722 166.002 284.022 167.197C285.306 168.433 285.712 170.326 285.046 171.98Z" fill="#6ACC91"/>
<path d="M309.561 274.308L305.546 280.116L305.204 280.629L304.948 280.885L275.224 324.019C269.655 332.115 260.45 336.941 250.624 336.917H242.681V349.729C242.667 351.498 241.587 353.083 239.947 353.744C239.452 353.912 238.933 353.998 238.41 354C237.193 354.009 236.035 353.477 235.249 352.548L201.083 314.111C199.728 312.64 199.62 310.41 200.827 308.815L234.993 261.837C236.041 260.333 237.939 259.678 239.691 260.214C241.479 260.777 242.692 262.44 242.681 264.314V277.126H292.734C295.088 277.184 297.366 276.291 299.055 274.649L310.586 263.631C311.373 267.209 311.014 270.944 309.561 274.308Z" fill="#6ACC91"/>
</g>
</g>
<defs>
<clipPath id="clip0">
<rect width="423" height="504" fill="white" transform="translate(-3)"/>
</clipPath>
<clipPath id="clip1">
<rect width="205" height="205" fill="white" transform="translate(106 149)"/>
</clipPath>
</defs>
</svg>
