<svg width="205" height="205" viewBox="0 0 205 205" fill="none" xmlns="http://www.w3.org/2000/svg">
<g clip-path="url(#clip0)">
<path d="M203.561 125.308C202.615 127.722 201.124 129.885 199.204 131.629L198.948 131.885C195.64 134.986 191.268 136.698 186.734 136.668H162.305C160.853 136.666 159.502 135.926 158.718 134.704L154.618 128.126L137.364 100.537C136.694 99.5631 136.506 98.3363 136.852 97.206C137.114 96.0445 137.86 95.05 138.901 94.4726L177.338 73.119C179.418 72.0255 181.99 72.7818 183.147 74.8274L202.963 110.189C205.438 114.879 205.657 120.437 203.561 125.308Z" fill="#35995D"/>
<path d="M111.568 34.9384L107.981 39.978L88.9336 66.5423C88.1336 67.6814 86.8231 68.3524 85.4314 68.336C84.7175 68.3284 84.0153 68.1526 83.3814 67.8235L36.4032 42.1989C35.3106 41.62 34.5294 40.5886 34.268 39.3802C33.9981 38.1567 34.2792 36.8762 35.0367 35.8781L53.3154 11.5348C54.0445 10.5394 54.8441 9.59771 55.7069 8.71606C60.8527 3.28806 67.9599 0.149854 75.4378 0.00371445C75.8382 -0.010299 76.2394 0.0181283 76.6338 0.0889961C85.7705 0.36446 94.2338 4.96086 99.4396 12.4741L111.568 30.0697C112.584 31.5339 112.584 33.4746 111.568 34.9384Z" fill="#35995D"/>
<path d="M84.0645 118.474C82.7645 119.669 80.8639 119.941 79.2812 119.158L65.9564 112.495L58.1837 128.126L55.1088 134.276C54.3721 135.726 52.8915 136.647 51.2651 136.668H18.2951C13.7151 136.723 9.2969 134.974 5.99534 131.799L5.82438 131.628C3.85729 129.823 2.31141 127.607 1.29724 125.137C-0.0136167 121.795 -0.310701 118.14 0.443221 114.631C0.775539 113.121 1.29163 111.658 1.98069 110.275L16.1595 82.0023L1.29724 67.0543C0.0308258 65.8756 -0.346736 64.0222 0.357539 62.4419C1.01257 60.8472 2.56245 59.8026 4.2865 59.7942H59.8065C61.5305 59.8026 63.0804 60.8472 63.7355 62.4419L85.0891 113.691C85.7525 115.346 85.3474 117.237 84.0645 118.474Z" fill="#35995D"/>
<path d="M85.4314 132.397V183.646C85.4314 186.005 83.5192 187.917 81.1605 187.917H60.4047C50.6021 187.94 41.4237 183.111 35.8904 175.019C34.6944 173.311 33.6694 171.773 32.7301 170.407L32.3886 170.065C32.4739 170.065 30.7659 167.674 29.1427 165.282C28.374 164.257 27.7762 163.232 27.178 162.463C24.9571 159.217 23.7615 157.595 24.274 158.278C23.8468 157.595 23.42 157.082 23.2491 156.741L23.1638 156.655C22.8222 156.143 22.7109 155.972 22.6941 155.929L22.566 155.801L22.4807 155.63C16.5018 147.003 10.9497 138.974 5.99572 131.8L5.82476 131.629C4.202 129.408 2.74981 127.187 1.29762 125.137C-0.013238 121.795 -0.310323 118.141 0.4436 114.631L11.9746 125.65C13.6631 127.291 15.9412 128.184 18.2955 128.127H81.1609C83.5192 128.126 85.4314 130.038 85.4314 132.397Z" fill="#6ACC91"/>
<path d="M179.046 22.9801L157.693 74.2292C157.038 75.8239 155.488 76.8685 153.764 76.8769C153.505 76.8909 153.245 76.8621 152.995 76.7916L106.017 68.2503C104.225 67.8839 102.838 66.4625 102.515 64.6628C102.259 62.8194 103.226 61.0225 104.906 60.2214L117.547 53.9005L107.981 39.978L92.4353 17.2574C88.6777 11.9187 82.5638 8.73443 76.0356 8.71601H55.7069C59.9306 4.24493 65.5179 1.30091 71.5941 0.345193L75.4378 0.0889472H76.6338L131.812 0.00366545C138.976 -0.0307675 145.68 3.52984 149.664 9.48475L159.486 24.347L173.238 17.5136C174.821 16.7309 176.722 17.0024 178.022 18.1971C179.306 19.4335 179.712 21.3261 179.046 22.9801Z" fill="#6ACC91"/>
<path d="M203.561 125.308L199.546 131.116L199.204 131.629L198.948 131.885L169.224 175.019C163.655 183.115 154.45 187.941 144.624 187.917H136.681V200.729C136.667 202.498 135.587 204.083 133.947 204.744C133.452 204.912 132.933 204.998 132.41 205C131.193 205.009 130.035 204.477 129.249 203.548L95.0835 165.111C93.7282 163.64 93.6205 161.41 94.8272 159.815L128.993 112.837C130.041 111.333 131.939 110.678 133.691 111.214C135.479 111.777 136.692 113.44 136.681 115.314V128.126H186.734C189.088 128.184 191.366 127.291 193.055 125.649L204.586 114.631C205.373 118.209 205.014 121.944 203.561 125.308Z" fill="#6ACC91"/>
</g>
<defs>
<clipPath id="clip0">
<rect width="205" height="205" fill="white"/>
</clipPath>
</defs>
</svg>
