<svg width="20" height="20" viewBox="0 0 20 20" fill="none" xmlns="http://www.w3.org/2000/svg">
<g clip-path="url(#clip0)">
<path d="M19.8595 12.2251C19.7673 12.4607 19.6219 12.6717 19.4346 12.8418L19.4096 12.8668C19.0868 13.1693 18.6603 13.3364 18.2179 13.3335H15.8346C15.6929 13.3332 15.5611 13.261 15.4846 13.1418L15.0846 12.5001L13.4013 9.80848C13.336 9.71345 13.3176 9.59376 13.3513 9.48349C13.3769 9.37017 13.4497 9.27314 13.5513 9.21681L17.3013 7.13353C17.5042 7.02685 17.7551 7.10064 17.8679 7.30021L19.8012 10.7501C20.0427 11.2077 20.0641 11.7499 19.8595 12.2251Z" fill="#DFDFDF"/>
<path d="M10.8848 3.4086L10.5348 3.90027L8.6765 6.4919C8.59846 6.60303 8.47061 6.6685 8.33483 6.6669C8.26518 6.66616 8.19667 6.64901 8.13483 6.6169L3.55159 4.11695C3.44499 4.06046 3.36878 3.95984 3.34328 3.84195C3.31695 3.72258 3.34437 3.59766 3.41828 3.50028L5.20157 1.12532C5.2727 1.02821 5.3507 0.936338 5.43488 0.850324C5.9369 0.320763 6.63029 0.0145961 7.35985 0.000338566C7.39891 -0.0010286 7.43805 0.00174479 7.47653 0.00865873C8.36792 0.0355333 9.1936 0.483963 9.70149 1.21696L10.8848 2.93361C10.9838 3.07646 10.9838 3.26579 10.8848 3.4086Z" fill="#DFDFDF"/>
<path d="M8.20143 11.5585C8.0746 11.675 7.88917 11.7016 7.73476 11.6252L6.43478 10.9752L5.67648 12.5002L5.37648 13.1002C5.30461 13.2416 5.16016 13.3315 5.00149 13.3335H1.78491C1.33808 13.3389 0.907031 13.1683 0.584928 12.8585L0.568248 12.8418C0.376337 12.6657 0.22552 12.4495 0.126576 12.2085C-0.00131208 11.8825 -0.0302959 11.5259 0.0432574 11.1835C0.0756788 11.0363 0.126029 10.8935 0.193255 10.7585L1.57655 8.00026L0.126576 6.54193C0.00302377 6.42693 -0.0338115 6.24611 0.0348982 6.09193C0.0988033 5.93635 0.250012 5.83444 0.418212 5.83362H5.8348C6.003 5.83444 6.1542 5.93635 6.21811 6.09193L8.30139 11.0918C8.36612 11.2533 8.32659 11.4378 8.20143 11.5585Z" fill="#DFDFDF"/>
<path d="M8.33478 12.9168V17.9167C8.33478 18.1469 8.14822 18.3334 7.9181 18.3334H5.89314C4.93679 18.3356 4.04134 17.8645 3.5015 17.0751C3.38482 16.9084 3.28483 16.7584 3.19319 16.6251L3.15987 16.5918C3.16819 16.5918 3.00155 16.3585 2.84319 16.1251C2.76819 16.0251 2.70987 15.9251 2.65152 15.8501C2.43484 15.5335 2.3182 15.3752 2.3682 15.4418C2.32652 15.3752 2.28488 15.3252 2.2682 15.2918L2.25988 15.2835C2.22656 15.2335 2.2157 15.2168 2.21406 15.2127L2.20156 15.2002L2.19324 15.1835C1.60993 14.3419 1.06826 13.5585 0.584951 12.8586L0.568272 12.8419C0.409954 12.6252 0.268277 12.4086 0.1266 12.2086C-0.00128853 11.8825 -0.0302724 11.526 0.043281 11.1836L1.16826 12.2586C1.33298 12.4187 1.55525 12.5058 1.78493 12.5002H7.91814C8.14822 12.5002 8.33478 12.6867 8.33478 12.9168Z" fill="white"/>
<path d="M17.4679 2.24199L15.3846 7.2419C15.3207 7.39749 15.1695 7.4994 15.0013 7.50022C14.9761 7.50159 14.9507 7.49877 14.9263 7.4919L10.3431 6.65859C10.1683 6.62285 10.0329 6.48418 10.0014 6.3086C9.97645 6.12876 10.0709 5.95345 10.2347 5.87529L11.468 5.25862L10.5347 3.90032L9.01807 1.68368C8.65148 1.16283 8.055 0.852172 7.4181 0.850375H5.43481C5.84688 0.414172 6.39198 0.126951 6.98479 0.0337101L7.35978 0.00871052H7.47646L12.8597 0.000390355C13.5587 -0.00296896 14.2127 0.344408 14.6013 0.925374L15.5596 2.37535L16.9013 1.70868C17.0557 1.63231 17.2411 1.6588 17.368 1.77536C17.4933 1.89598 17.5328 2.08063 17.4679 2.24199Z" fill="white"/>
<path d="M19.8596 12.2252L19.4679 12.7919L19.4346 12.8419L19.4096 12.8669L16.5096 17.0751C15.9664 17.8649 15.0683 18.3358 14.1097 18.3334H13.3347V19.5834C13.3334 19.7559 13.2281 19.9106 13.068 19.9751C13.0197 19.9915 12.969 19.9999 12.918 20.0001C12.7993 20.0009 12.6863 19.9491 12.6097 19.8584L9.27644 16.1085C9.14422 15.9649 9.13371 15.7474 9.25145 15.5918L12.5847 11.0085C12.6869 10.8618 12.8721 10.7979 13.043 10.8502C13.2175 10.9051 13.3358 11.0673 13.3347 11.2502V12.5002H18.2179C18.4476 12.5058 18.6698 12.4187 18.8346 12.2585L19.9596 11.1835C20.0364 11.5326 20.0014 11.8971 19.8596 12.2252Z" fill="white"/>
</g>
<defs>
<clipPath id="clip0">
<rect width="20" height="20" fill="white"/>
</clipPath>
</defs>
</svg>
