<svg width="24" height="24" viewBox="0 0 24 24" fill="none" xmlns="http://www.w3.org/2000/svg">
    <path fill-rule="evenodd" clip-rule="evenodd"
        d="M14.5 3L15.5 4H19V6H5V4H8.5L9.5 3H14.5ZM6 19C6 20.1 6.9 21 8 21H16C17.1 21 18 20.1 18 19V7H6V19ZM8 9H16V19H8V9Z"
        fill="white" />
    <path
        d="M11.9597 11.224C12.5143 11.224 12.9597 11.376 13.2957 11.68C13.637 11.9787 13.8077 12.392 13.8077 12.92C13.8077 13.4427 13.6397 13.8427 13.3037 14.12C12.9677 14.392 12.5223 14.528 11.9677 14.528L11.9357 15.144H10.9517L10.9117 13.784H11.2717C11.7357 13.784 12.093 13.7227 12.3437 13.6C12.5943 13.4773 12.7197 13.2533 12.7197 12.928C12.7197 12.6933 12.6503 12.5067 12.5117 12.368C12.3783 12.2293 12.1943 12.16 11.9597 12.16C11.7143 12.16 11.5223 12.2267 11.3837 12.36C11.2503 12.4933 11.1837 12.6773 11.1837 12.912H10.1277C10.1223 12.5867 10.1917 12.296 10.3357 12.04C10.4797 11.784 10.6903 11.584 10.9677 11.44C11.2503 11.296 11.581 11.224 11.9597 11.224ZM11.4397 17.056C11.237 17.056 11.069 16.9947 10.9357 16.872C10.8077 16.744 10.7437 16.5867 10.7437 16.4C10.7437 16.2133 10.8077 16.0587 10.9357 15.936C11.069 15.808 11.237 15.744 11.4397 15.744C11.637 15.744 11.7997 15.808 11.9277 15.936C12.0557 16.0587 12.1197 16.2133 12.1197 16.4C12.1197 16.5867 12.0557 16.744 11.9277 16.872C11.7997 16.9947 11.637 17.056 11.4397 17.056Z"
        fill="white" />
</svg>